<svg width="281" height="236" viewBox="0 0 281 236" fill="none" xmlns="http://www.w3.org/2000/svg">
    <path d="M264.735 0.858398H16.3475C12.1568 0.86303 8.13902 2.52984 5.17573 5.49312C2.21245 8.4564 0.545648 12.4741 0.541016 16.6648V192.794C0.545648 196.985 2.21245 201.002 5.17573 203.966C8.13902 206.929 12.1568 208.596 16.3475 208.6H103.599L100.585 226.665H68.283C67.0852 226.665 65.9365 227.141 65.0896 227.988C64.2426 228.835 63.7668 229.983 63.7668 231.181C63.7668 232.379 64.2426 233.527 65.0896 234.374C65.9365 235.221 67.0852 235.697 68.283 235.697H212.799C213.997 235.697 215.146 235.221 215.992 234.374C216.839 233.527 217.315 232.379 217.315 231.181C217.315 229.983 216.839 228.835 215.992 227.988C215.146 227.141 213.997 226.665 212.799 226.665H180.497L177.483 208.6H264.735C268.925 208.596 272.943 206.929 275.906 203.966C278.87 201.002 280.536 196.985 280.541 192.794V16.6648C280.536 12.4741 278.87 8.4564 275.906 5.49312C272.943 2.52984 268.925 0.86303 264.735 0.858398ZM109.741 226.665L112.756 208.6H168.326L171.341 226.665H109.741ZM271.509 192.794C271.507 194.59 270.793 196.312 269.523 197.582C268.253 198.852 266.531 199.567 264.735 199.568H16.3475C14.5513 199.567 12.8291 198.852 11.559 197.582C10.289 196.312 9.57477 194.59 9.57327 192.794V181.504H271.509V192.794ZM271.509 172.471H9.57327V16.6648C9.57477 14.8687 10.289 13.1465 11.559 11.8764C12.8291 10.6063 14.5513 9.89215 16.3475 9.89066H264.735C266.531 9.89215 268.253 10.6063 269.523 11.8764C270.793 13.1465 271.507 14.8687 271.509 16.6648V172.471Z" fill="#0A3A68"/>
    <path d="M50.2184 186.02H18.6055C17.4078 186.02 16.2591 186.495 15.4121 187.342C14.5652 188.189 14.0894 189.338 14.0894 190.536C14.0894 191.734 14.5652 192.882 15.4121 193.729C16.2591 194.576 17.4078 195.052 18.6055 195.052H50.2184C51.4162 195.052 52.5649 194.576 53.4118 193.729C54.2588 192.882 54.7346 191.734 54.7346 190.536C54.7346 189.338 54.2588 188.189 53.4118 187.342C52.5649 186.495 51.4162 186.02 50.2184 186.02Z" fill="#0A3A68"/>
    <path d="M68.283 186.02H63.7668C62.5691 186.02 61.4204 186.495 60.5734 187.342C59.7265 188.189 59.2507 189.338 59.2507 190.536C59.2507 191.734 59.7265 192.882 60.5734 193.729C61.4204 194.576 62.5691 195.052 63.7668 195.052H68.283C69.4807 195.052 70.6294 194.576 71.4763 193.729C72.3233 192.882 72.7991 191.734 72.7991 190.536C72.7991 189.338 72.3233 188.189 71.4763 187.342C70.6294 186.495 69.4807 186.02 68.283 186.02Z" fill="#0A3A68"/>
    <path d="M185.886 142.548L180.546 126.528C178.68 120.935 173.92 116.806 168.117 115.75L152.703 112.945V111.75C155.385 110.193 157.719 108.111 159.578 105.645H164.235C168.05 105.645 171.154 102.541 171.154 98.7258V71.0484C171.154 54.5157 157.703 41.0645 141.17 41.0645C124.638 41.0645 111.186 54.5157 111.186 71.0484V87.1935C111.186 91.6404 114.349 95.3607 118.542 96.2279C119.836 102.857 123.978 108.466 129.638 111.75V112.945L114.222 115.75C108.421 116.806 103.658 120.935 101.795 126.528L100.872 129.298L93.0162 121.442C92.1167 120.542 92.1167 119.078 93.0162 118.178L102.127 109.07L85.0267 91.9702L74.7307 102.266C71.6815 105.315 70.0024 109.37 70.0024 113.683C70.0024 117.996 71.6815 122.049 74.7307 125.098L105.902 156.269C108.951 159.319 113.006 161 117.319 161C121.632 161 125.685 159.319 128.662 156.339L139.897 146.045L136.394 142.548H185.886ZM166.541 98.7258C166.541 99.9989 165.506 101.032 164.235 101.032H162.295C162.964 99.5077 163.471 97.9001 163.799 96.2279C164.786 96.0226 165.695 95.6305 166.541 95.1369V98.7258ZM164.235 91.1652V83.2218C165.607 84.0221 166.541 85.4937 166.541 87.1935C166.541 88.8934 165.607 90.3649 164.235 91.1652ZM118.106 91.1652C116.733 90.3649 115.799 88.8934 115.799 87.1935C115.799 85.4937 116.733 84.0221 118.106 83.2218V91.1652ZM118.106 75.6613V78.2952C117.285 78.5097 116.514 78.8326 115.799 79.2501V71.0484C115.799 57.0597 127.182 45.6774 141.17 45.6774C155.159 45.6774 166.541 57.0597 166.541 71.0484V79.2501C165.826 78.8326 165.056 78.5074 164.235 78.2952V75.6613H161.928C155.108 75.6613 148.696 73.0042 143.871 68.1814L141.17 65.4806L138.469 68.1814C133.644 73.0042 127.232 75.6613 120.412 75.6613H118.106ZM122.719 91.8064V80.1865C129.645 79.6653 136.103 76.8076 141.17 71.9894C146.238 76.8076 152.696 79.6676 159.622 80.1865V91.8064C159.622 95.1692 158.704 98.3152 157.126 101.032H141.17V105.645H153.335C150.082 108.507 145.832 110.258 141.17 110.258C130.997 110.258 122.719 101.98 122.719 91.8064ZM148.09 113.808V113.916L141.17 120.835L134.251 113.916V113.808C136.437 114.495 138.76 114.871 141.17 114.871C143.581 114.871 145.903 114.495 148.09 113.808ZM106.168 127.985C107.498 123.991 110.9 121.041 115.045 120.284L131.167 117.355L141.17 127.358L151.171 117.357L167.291 120.286C171.436 121.043 174.838 123.991 176.168 127.988L179.487 137.935H131.781L122.797 128.952L112.815 137.982C111.945 138.856 110.425 138.856 109.553 137.982L104.516 132.944L106.168 127.985ZM85.0244 98.4928L95.6018 109.07L93.0969 111.575L82.5196 100.998L85.0244 98.4928ZM125.468 153.013C123.291 155.185 120.394 156.387 117.315 156.387C114.236 156.387 111.339 155.185 109.159 153.008L77.9874 121.839C75.8101 119.661 74.6107 116.765 74.6107 113.685C74.6107 110.604 75.8101 107.707 77.9874 105.53L79.2559 104.261L89.8333 114.839L89.7503 114.922C87.054 117.62 87.054 122.009 89.7503 124.708L106.29 141.248C107.598 142.553 109.334 143.275 111.184 143.275C113.034 143.275 114.771 142.555 115.993 141.328L116.166 141.174L126.792 151.8L125.468 153.013ZM130.196 148.677L119.593 138.074L122.64 135.32L133.225 145.904L130.196 148.677Z" fill="#004EA2" stroke="#004EA2" stroke-width="2"/>
    <path d="M205.751 18H173.461C169.646 18 166.542 21.1045 166.542 24.9194V43.371C166.542 47.1858 169.646 50.2903 173.461 50.2903H179.622L177.237 64.2005L199.494 50.2903H205.751C209.566 50.2903 212.671 47.1858 212.671 43.371V24.9194C212.671 21.1045 209.566 18 205.751 18ZM208.058 43.371C208.058 44.6418 207.022 45.6774 205.751 45.6774H198.17L183.522 54.8317L185.092 45.6774H173.461C172.19 45.6774 171.155 44.6418 171.155 43.371V24.9194C171.155 23.6485 172.19 22.6129 173.461 22.6129H205.751C207.022 22.6129 208.058 23.6485 208.058 24.9194V43.371Z" fill="#E6367E" stroke="#E6367E" stroke-width="2"/>
    <path d="M203.445 27.2258H175.767V31.8387H203.445V27.2258Z" fill="#E6367E" stroke="#E6367E" stroke-width="2"/>
    <path d="M194.219 36.4516H175.767V41.0645H194.219V36.4516Z" fill="#E6367E" stroke="#E6367E" stroke-width="2"/>
    <path d="M203.445 36.4516H198.832V41.0645H203.445V36.4516Z" fill="#E6367E" stroke="#E6367E" stroke-width="2"/>
    <path d="M141.17 24.9194C111.034 24.9194 85.075 45.7651 78.3263 74.8425L73.9556 67.5564L70 69.9298L78.1072 83.4387L91.6161 75.3315L89.2427 71.3759L82.9922 75.1262C89.5287 48.5259 113.449 29.5323 141.17 29.5323C147.229 29.5323 153.208 30.4318 158.939 32.2078L160.305 27.8024C154.13 25.8881 147.693 24.9194 141.17 24.9194Z" fill="#E6367E" stroke="#E6367E" stroke-width="2"/>
    <path d="M211.549 69.0693L198.04 60.9621L189.936 74.4733L193.891 76.8467L197.927 70.1188C200.052 76.3346 201.138 82.8365 201.138 89.4999C201.138 103.216 196.387 116.626 187.763 127.256L191.345 130.163C200.635 118.713 205.751 104.27 205.751 89.4999C205.751 82.4444 204.614 75.5551 202.397 68.9586L209.176 73.0249L211.549 69.0693Z" fill="#E6367E" stroke="#E6367E" stroke-width="2"/>
    </svg>
    