<svg width="280" height="235" viewBox="0 0 280 235" fill="none" xmlns="http://www.w3.org/2000/svg">
    <path d="M264.194 0H15.8065C11.6157 0.00463203 7.598 1.67144 4.63472 4.63472C1.67144 7.598 0.00463203 11.6157 0 15.8065V191.935C0.00463203 196.126 1.67144 200.144 4.63472 203.107C7.598 206.07 11.6157 207.737 15.8065 207.742H103.058L100.044 225.806H67.7419C66.5442 225.806 65.3955 226.282 64.5486 227.129C63.7016 227.976 63.2258 229.125 63.2258 230.323C63.2258 231.52 63.7016 232.669 64.5486 233.516C65.3955 234.363 66.5442 234.839 67.7419 234.839H212.258C213.456 234.839 214.605 234.363 215.451 233.516C216.298 232.669 216.774 231.52 216.774 230.323C216.774 229.125 216.298 227.976 215.451 227.129C214.605 226.282 213.456 225.806 212.258 225.806H179.956L176.942 207.742H264.194C268.384 207.737 272.402 206.07 275.365 203.107C278.329 200.144 279.995 196.126 280 191.935V15.8065C279.995 11.6157 278.329 7.598 275.365 4.63472C272.402 1.67144 268.384 0.00463203 264.194 0ZM109.2 225.806L112.215 207.742H167.785L170.8 225.806H109.2ZM270.968 191.935C270.966 193.732 270.252 195.454 268.982 196.724C267.712 197.994 265.99 198.708 264.194 198.71H15.8065C14.0103 198.708 12.2881 197.994 11.018 196.724C9.74794 195.454 9.03375 193.732 9.03226 191.935V180.645H270.968V191.935ZM270.968 171.613H9.03226V15.8065C9.03375 14.0103 9.74794 12.2881 11.018 11.018C12.2881 9.74794 14.0103 9.03375 15.8065 9.03226H264.194C265.99 9.03375 267.712 9.74794 268.982 11.018C270.252 12.2881 270.966 14.0103 270.968 15.8065V171.613Z" fill="#0A3A68"/>
    <path d="M49.6774 185.161H18.0645C16.8668 185.161 15.7181 185.637 14.8711 186.484C14.0242 187.331 13.5484 188.48 13.5484 189.677C13.5484 190.875 14.0242 192.024 14.8711 192.871C15.7181 193.718 16.8668 194.194 18.0645 194.194H49.6774C50.8752 194.194 52.0239 193.718 52.8708 192.871C53.7177 192.024 54.1935 190.875 54.1935 189.677C54.1935 188.48 53.7177 187.331 52.8708 186.484C52.0239 185.637 50.8752 185.161 49.6774 185.161Z" fill="#0A3A68"/>
    <path d="M67.7419 185.161H63.2258C62.0281 185.161 60.8794 185.637 60.0324 186.484C59.1855 187.331 58.7097 188.48 58.7097 189.677C58.7097 190.875 59.1855 192.024 60.0324 192.871C60.8794 193.718 62.0281 194.194 63.2258 194.194H67.7419C68.9397 194.194 70.0884 193.718 70.9353 192.871C71.7823 192.024 72.2581 190.875 72.2581 189.677C72.2581 188.48 71.7823 187.331 70.9353 186.484C70.0884 185.637 68.9397 185.161 67.7419 185.161Z" fill="#0A3A68"/>
    <path d="M91.2258 78.3871C91.2258 82.0173 92.977 85.4477 95.871 87.6286V101.613H109.806V87.6286C112.7 85.4477 114.452 82.0173 114.452 78.3871C114.452 71.9837 109.242 66.7742 102.839 66.7742C96.4354 66.7742 91.2258 71.9837 91.2258 78.3871ZM109.806 78.3871C109.806 80.8676 108.501 83.1089 106.316 84.3817L105.161 85.0529V96.9677H100.516V85.0529L99.3618 84.3817C97.1763 83.1089 95.871 80.8676 95.871 78.3871C95.871 74.5455 98.9972 71.4194 102.839 71.4194C106.68 71.4194 109.806 74.5455 109.806 78.3871Z" fill="#004EA2" stroke="#004EA2"/>
    <path d="M201.068 88.3579L193.419 96.0061L190.416 93.003L187.132 96.2872L193.419 102.574L204.352 91.642L201.068 88.3579Z" fill="#E6367E" stroke="#E6367E"/>
    <path d="M142.323 147.103L139.319 144.1L136.035 147.384L142.323 153.671L153.255 142.739L149.971 139.455L142.323 147.103Z" fill="#E6367E" stroke="#E6367E"/>
    <path d="M142.323 44.9095L139.319 41.9064L136.035 45.1905L142.323 51.4777L153.255 40.5454L149.971 37.2612L142.323 44.9095Z" fill="#E6367E" stroke="#E6367E"/>
    <path d="M212 94.6452C212 86.4441 205.889 79.6599 197.986 78.5613C192.616 60.7355 178.555 46.6746 160.729 41.3048C159.63 33.401 152.846 27.2903 144.645 27.2903C136.472 27.2903 129.706 33.3615 128.573 41.2258H123.742V38.9032C123.742 27.3763 114.366 18 102.839 18C91.3117 18 81.9355 27.3763 81.9355 38.9032V55.087C81.4268 55.1125 80.9228 55.1613 80.4095 55.1613H77.9383L77.4088 56.7499C77.0255 57.9019 68 85.1133 68 96.9677C68 107.489 86.4065 115.46 97.3783 119.274C99.1319 119.885 100.969 120.194 102.839 120.194C104.708 120.194 106.546 119.885 108.299 119.274C112.134 117.941 116.872 116.09 121.419 113.811C127.135 120.728 135.647 124.839 144.645 124.839C161.293 124.839 174.839 111.293 174.839 94.6452C174.839 77.9969 161.293 64.4516 144.645 64.4516C140.123 64.4516 135.668 65.4968 131.592 67.464C129.871 61.5809 128.417 57.1959 128.266 56.7476L127.739 55.1613H125.27C124.757 55.1613 124.253 55.1125 123.744 55.087V45.871H128.575C129.709 53.7352 136.474 59.8065 144.647 59.8065C152.725 59.8065 159.431 53.8746 160.678 46.1427C175.986 51.2013 188.091 63.3066 193.15 78.6147C185.416 79.8619 179.484 86.5672 179.484 94.6452C179.484 102.723 185.416 109.428 193.148 110.676C188.089 125.984 175.984 138.089 160.676 143.148C159.428 135.416 152.723 129.484 144.645 129.484C136.472 129.484 129.706 135.555 128.573 143.419H102.839V148.065H128.573C129.706 155.929 136.472 162 144.645 162C152.846 162 159.63 155.889 160.729 147.986C178.555 142.616 192.616 128.555 197.986 110.729C205.889 109.63 212 102.846 212 94.6452V94.6452ZM125.565 111.561C125.932 111.345 126.299 111.126 126.659 110.903H132.807C133.666 113.948 134.758 116.549 136.019 118.661C132.029 117.216 128.427 114.784 125.565 111.561V111.561ZM144.645 69.0968C147.142 69.0968 149.801 72.6434 151.634 78.3871H137.652C139.682 71.9954 142.518 69.0968 144.645 69.0968ZM152.818 83.0323C153.385 85.8403 153.766 88.9618 153.887 92.3226H137.341C136.992 89.5099 136.393 86.3234 135.661 83.0323H152.818ZM170.075 92.3226H158.53C158.423 89.0268 158.102 85.9053 157.58 83.0323H167.372C168.828 85.8681 169.775 89.0013 170.075 92.3226ZM170.075 96.9677C169.773 100.289 168.828 103.422 167.372 106.258H157.58C158.102 103.385 158.423 100.263 158.53 96.9677H170.075ZM137.677 96.9677H153.887C153.766 100.329 153.383 103.45 152.818 106.258H132.826C135.766 103.459 137.677 100.347 137.677 96.9677V96.9677ZM144.645 120.194C142.52 120.194 139.684 117.293 137.657 110.903H151.636C149.801 116.647 147.142 120.194 144.645 120.194ZM153.271 118.663C154.556 116.529 155.647 113.911 156.502 110.903H164.336C161.442 114.403 157.624 117.093 153.271 118.663V118.663ZM164.338 78.3871H156.504C155.65 75.3794 154.56 72.7618 153.274 70.6274C157.624 72.1974 161.442 74.887 164.338 78.3871V78.3871ZM135.982 70.6924C135.176 72.0511 134.44 73.6142 133.792 75.3654C133.497 74.2436 133.197 73.1381 132.898 72.0534C133.901 71.5308 134.927 71.0756 135.982 70.6924V70.6924ZM133.032 96.9677C133.032 103.457 118.885 110.676 106.773 114.889C104.246 115.764 101.429 115.764 98.9019 114.889C86.792 110.676 72.6452 103.457 72.6452 96.9677C72.6452 87.4126 79.3714 65.808 81.3037 59.7948C89.312 59.5905 96.8534 56.6338 102.839 51.3755C108.824 56.6338 116.365 59.5905 124.374 59.7948C126.306 65.808 133.032 87.4103 133.032 96.9677V96.9677ZM109.806 50.7437C107.902 49.5592 106.107 48.1773 104.481 46.5515L102.839 44.9094L101.197 46.5515C99.5708 48.1773 97.7755 49.5592 95.871 50.7437V38.9032C95.871 35.0617 98.9972 31.9355 102.839 31.9355C106.68 31.9355 109.806 35.0617 109.806 38.9032V50.7437ZM114.452 53.0965V38.9032C114.452 32.4999 109.242 27.2903 102.839 27.2903C96.4354 27.2903 91.2258 32.4999 91.2258 38.9032V53.0965C89.7231 53.6911 88.1716 54.1626 86.5806 54.4994V38.9032C86.5806 29.9404 93.8759 22.6452 102.839 22.6452C111.802 22.6452 119.097 29.9404 119.097 38.9032V54.4994C117.506 54.1603 115.954 53.6888 114.452 53.0965ZM144.645 55.1613C138.242 55.1613 133.032 49.9517 133.032 43.5484C133.032 37.145 138.242 31.9355 144.645 31.9355C151.049 31.9355 156.258 37.145 156.258 43.5484C156.258 49.9517 151.049 55.1613 144.645 55.1613ZM144.645 157.355C138.242 157.355 133.032 152.145 133.032 145.742C133.032 139.339 138.242 134.129 144.645 134.129C151.049 134.129 156.258 139.339 156.258 145.742C156.258 152.145 151.049 157.355 144.645 157.355ZM195.742 106.258C189.339 106.258 184.129 101.049 184.129 94.6452C184.129 88.2418 189.339 83.0323 195.742 83.0323C202.145 83.0323 207.355 88.2418 207.355 94.6452C207.355 101.049 202.145 106.258 195.742 106.258Z" fill="#004EA2" stroke="#004EA2"/>
    <path d="M93.5484 143.419H98.1935V148.065H93.5484V143.419Z" fill="#004EA2" stroke="#004EA2"/>
    <path d="M84.2581 143.419H88.9032V148.065H84.2581V143.419Z" fill="#004EA2" stroke="#004EA2"/>
    <path d="M123.735 96.5218L128.38 96.3801C128.338 95.0585 128.162 93.4049 127.85 91.4655L123.263 92.1994C123.544 93.9414 123.7 95.3953 123.735 96.5218V96.5218Z" fill="#004EA2" stroke="#004EA2"/>
    <path d="M122.43 87.7378L126.975 86.7855C126.666 85.313 126.315 83.7685 125.932 82.1868L121.419 83.2807C121.786 84.8136 122.13 86.3117 122.43 87.7378V87.7378Z" fill="#004EA2" stroke="#004EA2"/>
    <path d="M124.78 77.6438C124.385 76.1341 123.972 74.6129 123.551 73.1148L119.078 74.3713C119.491 75.8438 119.9 77.3303 120.286 78.8144L124.78 77.6438Z" fill="#004EA2" stroke="#004EA2"/>
    </svg>
    